<svg width="17" height="16" viewBox="0 0 17 16" fill="none" xmlns="http://www.w3.org/2000/svg">
<path fill-rule="evenodd" clip-rule="evenodd" d="M11.6882 0H3.71896C2.73263 0 1.7867 0.393332 1.08926 1.09347C0.391817 1.7936 0 2.74319 0 3.73333V12.2667C0 13.2568 0.391817 14.2064 1.08926 14.9065C1.7867 15.6067 2.73263 16 3.71896 16H14.8759C15.2959 15.9998 15.7064 15.8747 16.0556 15.6404C16.4048 15.4062 16.6771 15.0733 16.8379 14.6838C16.9988 14.2943 17.0411 13.8657 16.9595 13.4521C16.8779 13.0385 16.676 12.6585 16.3794 12.36L15.4071 11.384V3.73333C15.4071 2.74319 15.0153 1.7936 14.3179 1.09347C13.6204 0.393332 12.6745 0 11.6882 0ZM7.00195 11V7H9.00195V11H7.00195ZM7.00195 5C7.00195 5.55228 7.44967 6 8.00195 6C8.55424 6 9.00195 5.55228 9.00195 5C9.00195 4.44772 8.55424 4 8.00195 4C7.44967 4 7.00195 4.44772 7.00195 5Z" fill="#BBBBBB"/>
</svg>
