<svg width="20" height="20" viewBox="0 0 20 20" fill="none" xmlns="http://www.w3.org/2000/svg">
<path d="M5.73312 0H14.3057C17.4574 0 19.9998 2.54737 19.9998 5.70526V14.2947C19.9998 17.4526 17.4364 20 14.3057 20H5.73312C2.58143 20 0.0390625 17.4316 0.0390625 14.2947V5.70526C0.0390625 2.54737 2.58143 0 5.73312 0Z" fill="#EC6566"/>
<path d="M12.7119 13.776L10.0195 11.0791L7.32706 13.776C7.25651 13.847 7.17266 13.9033 7.08032 13.9418C6.98798 13.9802 6.88898 14 6.78898 14C6.68899 14 6.58999 13.9802 6.49765 13.9418C6.40531 13.9033 6.32146 13.847 6.25091 13.776C6.18005 13.7053 6.12383 13.6213 6.08546 13.5288C6.04709 13.4362 6.02734 13.337 6.02734 13.2369C6.02734 13.1367 6.04709 13.0375 6.08546 12.945C6.12383 12.8524 6.18005 12.7684 6.25091 12.6977L8.94252 10L6.25091 7.30227C6.18005 7.23159 6.12383 7.14757 6.08546 7.05505C6.04709 6.96253 6.02734 6.86333 6.02734 6.76314C6.02734 6.66295 6.04709 6.56375 6.08546 6.47123C6.12383 6.37871 6.18005 6.2947 6.25091 6.22401C6.32146 6.15301 6.40531 6.09667 6.49765 6.05823C6.58999 6.01979 6.68899 6 6.78898 6C6.88898 6 6.98798 6.01979 7.08032 6.05823C7.17266 6.09667 7.25651 6.15301 7.32706 6.22401L10.0195 8.92091L12.7119 6.22401C12.7825 6.15301 12.8663 6.09667 12.9587 6.05823C13.051 6.01979 13.15 6 13.25 6C13.35 6 13.449 6.01979 13.5413 6.05823C13.6337 6.09667 13.7175 6.15301 13.7881 6.22401C13.8589 6.2947 13.9151 6.37871 13.9535 6.47123C13.9919 6.56375 14.0116 6.66295 14.0116 6.76314C14.0116 6.86333 13.9919 6.96253 13.9535 7.05505C13.9151 7.14757 13.8589 7.23159 13.7881 7.30227L11.0965 10L13.7881 12.6977C13.8589 12.7684 13.9151 12.8524 13.9535 12.945C13.9919 13.0375 14.0116 13.1367 14.0116 13.2369C14.0116 13.337 13.9919 13.4362 13.9535 13.5288C13.9151 13.6213 13.8589 13.7053 13.7881 13.776C13.7175 13.847 13.6337 13.9033 13.5413 13.9418C13.449 13.9802 13.35 14 13.25 14C13.15 14 13.051 13.9802 12.9587 13.9418C12.8663 13.9033 12.7825 13.847 12.7119 13.776Z" fill="white"/>
</svg>
