<svg width="20" height="20" viewBox="0 0 20 20" fill="none" xmlns="http://www.w3.org/2000/svg">
<path d="M5.73312 0H14.3057C17.4574 0 19.9998 2.54737 19.9998 5.70526V14.2947C19.9998 17.4526 17.4364 20 14.3057 20H5.73312C2.58143 20 0.0390625 17.4316 0.0390625 14.2947V5.70526C0.0390625 2.54737 2.58143 0 5.73312 0Z" fill="#49EC9F"/>
<path d="M13.1921 6.58954L9.03188 11.3053L6.80469 9.07375C6.42649 8.6948 5.79615 8.6948 5.39693 9.07375C5.01873 9.45269 5.01873 10.0843 5.39693 10.4843L8.38053 13.4737C8.56964 13.6632 8.82177 13.7685 9.07391 13.7685C9.09492 13.7685 9.09492 13.7685 9.11593 13.7685C9.38907 13.7685 9.64121 13.6422 9.83031 13.4316L14.6839 7.8948C15.0411 7.47375 14.9991 6.84217 14.5999 6.48427C14.1796 6.12638 13.5493 6.16848 13.1921 6.58954Z" fill="white"/>
</svg>
