<svg width="12" height="19" viewBox="0 0 12 19" fill="none" xmlns="http://www.w3.org/2000/svg">
<path d="M10.9142 4.4108C11.6953 3.62975 11.6953 2.36342 10.9142 1.58237C10.1332 0.80132 8.86684 0.80132 8.08579 1.58237L10.9142 4.4108ZM2.5 9.99658L1.08579 8.58237C0.304738 9.36342 0.304738 10.6297 1.08579 11.4108L2.5 9.99658ZM8.08579 18.4108C8.86683 19.1918 10.1332 19.1918 10.9142 18.4108C11.6953 17.6297 11.6953 16.3634 10.9142 15.5824L8.08579 18.4108ZM8.08579 1.58237L1.08579 8.58237L3.91421 11.4108L10.9142 4.4108L8.08579 1.58237ZM1.08579 11.4108L8.08579 18.4108L10.9142 15.5824L3.91421 8.58237L1.08579 11.4108Z" fill="white"/>
</svg>
