<svg width="68" height="20" viewBox="0 0 68 20" fill="none" xmlns="http://www.w3.org/2000/svg">
<path opacity="0.4" d="M0.897098 11H64.9499L58.8496 17.8C58.4908 18.2 58.4908 18.8 58.8496 19.2C59.029 19.4 59.2982 19.5 59.4776 19.5C59.657 19.5 59.9261 19.4 60.1055 19.2L67.7309 10.7C68.0897 10.3 68.0897 9.7 67.7309 9.3L60.1055 0.8C59.7467 0.4 59.2084 0.4 58.8496 0.8C58.4908 1.2 58.4908 1.8 58.8496 2.2L64.9499 9H0.897098C0.358839 9 0 9.4 0 10C0 10.6 0.358839 11 0.897098 11Z" fill="url(#paint0_linear)"/>
<defs>
<linearGradient id="paint0_linear" x1="68.0035" y1="9.99999" x2="-13.031" y2="-16.8695" gradientUnits="userSpaceOnUse">
<stop stop-color="white"/>
<stop offset="1" stop-color="white" stop-opacity="0"/>
</linearGradient>
</defs>
</svg>
