<svg width="19" height="23" viewBox="0 0 19 23" fill="none" xmlns="http://www.w3.org/2000/svg">
<path d="M15.7905 9H8.21049C7.35914 9 6.54267 9.3382 5.94068 9.94019C5.33868 10.5422 5.00049 11.3587 5.00049 12.21V19.79C5.00049 20.6413 5.33868 21.4578 5.94068 22.0598C6.54267 22.6618 7.35914 23 8.21049 23H15.7905C16.6418 23 17.4583 22.6618 18.0603 22.0598C18.6623 21.4578 19.0005 20.6413 19.0005 19.79V12.21C19.0005 11.3587 18.6623 10.5422 18.0603 9.94019C17.4583 9.3382 16.6418 9 15.7905 9ZM17.0005 19.79C17.0005 19.9489 16.9692 20.1062 16.9084 20.253C16.8476 20.3998 16.7584 20.5332 16.6461 20.6456C16.5337 20.758 16.4003 20.8471 16.2535 20.9079C16.1067 20.9687 15.9494 21 15.7905 21H8.21049C8.05159 21 7.89425 20.9687 7.74744 20.9079C7.60064 20.8471 7.46725 20.758 7.35489 20.6456C7.24253 20.5332 7.1534 20.3998 7.09259 20.253C7.03179 20.1062 7.00049 19.9489 7.00049 19.79V12.21C7.00049 11.8891 7.12797 11.5813 7.35489 11.3544C7.58181 11.1275 7.88958 11 8.21049 11H15.7905C16.1114 11 16.4192 11.1275 16.6461 11.3544C16.873 11.5813 17.0005 11.8891 17.0005 12.21V19.79Z" fill="white"/>
<path d="M3.31039 2H10.6904C11.0378 2 11.371 2.13802 11.6167 2.38369C11.8624 2.62936 12.0004 2.96257 12.0004 3.31V8H14.0004V3.31C14.0004 2.43213 13.6517 1.59022 13.0309 0.969477C12.4102 0.348731 11.5683 0 10.6904 0L3.31039 0C2.43252 0 1.59061 0.348731 0.969866 0.969477C0.34912 1.59022 0.000389299 2.43213 0.000389299 3.31V11.25C-0.00622737 11.6781 0.0715585 12.1034 0.229304 12.5014C0.38705 12.8995 0.621666 13.2626 0.919752 13.5699C1.21784 13.8773 1.57355 14.1229 1.96659 14.2928C2.35962 14.4627 2.78227 14.5535 3.21039 14.56V12.56C3.04488 12.5536 2.88227 12.5146 2.73185 12.4452C2.58143 12.3759 2.44616 12.2775 2.33378 12.1559C2.22139 12.0342 2.1341 11.8916 2.0769 11.7361C2.01969 11.5807 1.99369 11.4155 2.00039 11.25V3.31C2.00039 2.96257 2.13841 2.62936 2.38408 2.38369C2.62975 2.13802 2.96296 2 3.31039 2Z" fill="white"/>
</svg>
