<svg width="39" height="35" viewBox="0 0 39 35" fill="none" xmlns="http://www.w3.org/2000/svg">
<path d="M37.8278 9.26675L30.435 1.21075C30.3129 1.07679 30.1371 1 29.9564 1H9.04421C8.86354 1 8.68775 1.07679 8.56568 1.21075L1.17283 9.26675C0.957979 9.50037 0.941703 9.85163 1.13377 10.1049L18.9827 33.7419C19.1048 33.9052 19.2969 34 19.5003 34C19.7038 34 19.8958 33.9036 20.0179 33.7419L37.8669 10.1032C38.0573 9.85163 38.0427 9.49874 37.8278 9.26675ZM22.5034 2.307L24.5689 9.05599H14.4334L16.4989 2.307H22.5034ZM24.6144 10.3614L19.5003 30.6802L14.3862 10.3614H24.6144ZM13.0434 10.3614L18.0859 30.3911L2.96163 10.3614H13.0434ZM25.9573 10.3614H36.039L20.9148 30.3911L25.9573 10.3614ZM35.8649 9.05599H25.9312L23.8657 2.307H29.6683L35.8649 9.05599ZM9.33068 2.307H15.1333L13.0678 9.05599H3.13579L9.33068 2.307Z" fill="white" stroke="white"/>
</svg>
