<svg width="17" height="17" viewBox="0 0 17 17" fill="none" xmlns="http://www.w3.org/2000/svg">
<path d="M15.4545 0H1.54545C0.691591 0 0 0.691591 0 1.54545V15.4545C0 16.3084 0.691591 17 1.54545 17H15.4545C16.3084 17 17 16.3084 17 15.4545V1.54545C17 0.691591 16.3084 0 15.4545 0ZM10.0455 12.3636H3.86364C3.43709 12.3636 3.09091 12.0175 3.09091 11.5909C3.09091 11.1644 3.43709 10.8182 3.86364 10.8182H10.0455C10.472 10.8182 10.8182 11.1644 10.8182 11.5909C10.8182 12.0175 10.472 12.3636 10.0455 12.3636ZM13.1364 9.27273H3.86364C3.43709 9.27273 3.09091 8.92655 3.09091 8.5C3.09091 8.07345 3.43709 7.72727 3.86364 7.72727H13.1364C13.5629 7.72727 13.9091 8.07345 13.9091 8.5C13.9091 8.92655 13.5629 9.27273 13.1364 9.27273ZM13.1364 6.18182H3.86364C3.43709 6.18182 3.09091 5.83564 3.09091 5.40909C3.09091 4.98255 3.43709 4.63636 3.86364 4.63636H13.1364C13.5629 4.63636 13.9091 4.98255 13.9091 5.40909C13.9091 5.83564 13.5629 6.18182 13.1364 6.18182Z" fill="#BBBBBB"/>
</svg>
