<svg width="45" height="46" viewBox="0 0 45 46" fill="none" xmlns="http://www.w3.org/2000/svg">
<path d="M19.3324 42.0171L19.33 26.1694L3.48234 26.167C3.06611 26.1679 2.6538 26.0866 2.26908 25.9277C1.88435 25.7689 1.5348 25.5356 1.24048 25.2413C0.946162 24.947 0.712873 24.5974 0.554009 24.2127C0.395143 23.828 0.31383 23.4157 0.314741 22.9994C0.313831 22.5832 0.395143 22.1709 0.554008 21.7862C0.712873 21.4014 0.94616 21.0519 1.24048 20.7576C1.5348 20.4632 1.88435 20.23 2.26907 20.0711C2.6538 19.9122 3.06611 19.8309 3.48234 19.8318L19.33 19.8294L19.3324 3.98176C19.3315 3.56553 19.4128 3.15322 19.5717 2.7685C19.7305 2.38378 19.9638 2.03422 20.2581 1.7399C20.5525 1.44558 20.902 1.21229 21.2867 1.05343C21.6715 0.894565 22.0838 0.813252 22.5 0.814161C22.9162 0.813252 23.3285 0.894565 23.7133 1.05343C24.098 1.21229 24.4475 1.44558 24.7419 1.7399C25.0362 2.03422 25.2695 2.38378 25.4283 2.7685C25.5872 3.15322 25.6685 3.56553 25.6676 3.98176L25.67 19.8294L41.5177 19.8318C41.9339 19.8309 42.3462 19.9122 42.7309 20.0711C43.1156 20.23 43.4652 20.4632 43.7595 20.7576C44.0538 21.0519 44.2871 21.4014 44.446 21.7862C44.6049 22.1709 44.6862 22.5832 44.6853 22.9994C44.6862 23.4157 44.6049 23.828 44.446 24.2127C44.2871 24.5974 44.0538 24.947 43.7595 25.2413C43.4652 25.5356 43.1156 25.7689 42.7309 25.9277C42.3462 26.0866 41.9339 26.1679 41.5177 26.167L25.67 26.1694L25.6676 42.0171C25.6685 42.4333 25.5872 42.8456 25.4283 43.2303C25.2695 43.6151 25.0362 43.9646 24.7419 44.2589C24.4475 44.5533 24.098 44.7865 23.7133 44.9454C23.3285 45.1043 22.9162 45.1856 22.5 45.1847C22.0838 45.1856 21.6715 45.1043 21.2867 44.9454C20.902 44.7865 20.5525 44.5533 20.2581 44.2589C19.9638 43.9646 19.7305 43.6151 19.5717 43.2303C19.4128 42.8456 19.3315 42.4333 19.3324 42.0171Z" fill="#41444E"/>
</svg>
