<svg width="26" height="26" viewBox="0 0 26 26" fill="none" xmlns="http://www.w3.org/2000/svg">
<path d="M24.7077 14.9274C24.4849 14.8004 24.2052 14.8354 24.0203 15.013C22.2705 16.6957 20.0031 17.6224 17.6359 17.6224C12.6173 17.6224 8.37764 13.3827 8.37764 8.36419C8.37764 5.99728 9.30433 3.72989 10.987 1.97981C11.1649 1.79493 11.1997 1.51516 11.0727 1.29238C10.9459 1.06961 10.6873 0.956486 10.4376 1.01551C4.96917 2.30124 1 7.27809 1 12.8486C1 19.4355 6.56448 25 13.1514 25C18.722 25 23.6986 21.0311 24.9846 15.5627C25.0433 15.313 24.9308 15.0544 24.7077 14.9274ZM13.1514 23.8427C7.19201 23.8427 2.15728 18.808 2.15728 12.8486C2.15728 8.43913 4.9087 4.44046 8.91346 2.72972C7.81202 4.40805 7.22037 6.35343 7.22037 8.36419C7.22037 14.01 11.9901 18.7797 17.6359 18.7797C19.6466 18.7797 21.592 18.188 23.2704 17.0866C21.5596 21.0913 17.5609 23.8427 13.1514 23.8427Z" stroke="white" stroke-width="2"/>
</svg>
